<?xml version="1.0" standalone="no"?>
<!DOCTYPE svg PUBLIC "-//W3C//DTD SVG 20010904//EN"
 "http://www.w3.org/TR/2001/REC-SVG-20010904/DTD/svg10.dtd">
<svg version="1.0" xmlns="http://www.w3.org/2000/svg"
 width="512.000000pt" height="512.000000pt" viewBox="0 0 512.000000 512.000000"
 preserveAspectRatio="xMidYMid meet">

<g transform="translate(0.000000,512.000000) scale(0.100000,-0.100000)"
fill="#000000" stroke="none">
<path d="M1430 4494 c-560 -300 -991 -834 -1164 -1444 -207 -725 -65 -1496
388 -2100 88 -118 282 -318 401 -415 337 -274 745 -449 1200 -516 118 -18 492
-18 610 0 455 67 863 242 1200 516 119 97 313 297 401 415 453 604 595 1375
388 2100 -159 561 -528 1049 -1031 1366 -93 59 -215 124 -233 124 -7 0 -10
-130 -10 -389 l0 -389 99 -85 c401 -348 618 -871 581 -1400 -48 -680 -475
-1250 -1113 -1488 -190 -70 -366 -101 -587 -101 -171 0 -278 13 -427 51 -627
160 -1115 674 -1243 1310 -122 604 90 1228 551 1628 l99 85 0 389 c0 305 -3
389 -12 389 -7 0 -51 -21 -98 -46z"/>
</g>
</svg>
