<?xml version="1.0" standalone="no"?>
<!DOCTYPE svg PUBLIC "-//W3C//DTD SVG 20010904//EN"
 "http://www.w3.org/TR/2001/REC-SVG-20010904/DTD/svg10.dtd">
<svg version="1.0" xmlns="http://www.w3.org/2000/svg"
 width="512.000000pt" height="512.000000pt" viewBox="0 0 512.000000 512.000000"
 preserveAspectRatio="xMidYMid meet">

<g transform="translate(0.000000,512.000000) scale(0.100000,-0.100000)"
fill="#000000" stroke="none">
<path d="M2467 5106 c-92 -27 -173 -97 -216 -186 l-26 -55 0 -1110 0 -1110 27
-57 c32 -70 96 -133 168 -167 79 -37 201 -37 280 0 70 33 136 99 169 169 l26
55 0 1110 0 1110 -26 55 c-33 70 -99 136 -166 167 -65 30 -169 38 -236 19z"/>
</g>
</svg>
